<svg width="16" height="16" viewBox="0 0 16 16" fill="none" xmlns="http://www.w3.org/2000/svg">
  <path
    d="M2.40486 10.6015L3.02378 6.35761C3.04892 6.18523 2.91527 6.03066 2.74106 6.03066H2.00003C1.36885 6.03066 0.857178 5.51899 0.857178 4.88781V2.57132C0.857178 1.94014 1.36885 1.42847 2.00004 1.42847H7.92861C7.9755 1.42847 8.02168 1.44001 8.06306 1.46208L9.00844 1.96628C9.04982 1.98835 9.09599 1.9999 9.14289 1.9999H10.5911C10.6253 1.9999 10.6593 2.00606 10.6914 2.01809L12.1718 2.57323C12.2833 2.61505 12.3572 2.72165 12.3572 2.84075V4.78066C12.3572 4.90997 12.2703 5.02317 12.1454 5.05664L10.6792 5.4495C10.6551 5.45596 10.6302 5.45924 10.6053 5.45924H9.14289C9.09599 5.45924 9.04982 5.47078 9.00844 5.49285L8.06306 5.99705C8.02168 6.01912 7.9755 6.03066 7.92861 6.03066H5.89356C5.75013 6.03066 5.62894 6.13699 5.61027 6.2792L5.03266 10.6799C5.01399 10.8221 4.89279 10.9285 4.74937 10.9285H2.68758C2.51338 10.9285 2.37972 10.7739 2.40486 10.6015Z"
    stroke="currentColor" stroke-width="0.428571" />
  <rect x="0.428467" y="10.5715" width="7.14286" height="4.14286" rx="1.42857" fill="currentColor" />
  <path
    d="M5.366 6.49475C5.40438 6.21138 5.64631 6 5.93226 6H6.42854C6.74413 6 6.99996 6.25584 6.99996 6.57143V7.57143C6.99996 7.88702 6.74413 8.14286 6.42854 8.14286H5.79685C5.45078 8.14286 5.18415 7.83768 5.23059 7.49475L5.366 6.49475Z"
    fill="currentColor" />
  <rect x="9" y="2" width="1.71429" height="3.42857" fill="currentColor" />
  <rect x="1.57153" y="1.42847" width="0.857143" height="4.57143" fill="currentColor" />
  <rect x="9.64282" y="3.28564" width="0.857143" height="7.57143" transform="rotate(90 9.64282 3.28564)"
    fill="currentColor" />
  <rect x="5.42847" y="7.71436" width="0.857143" height="2.71429" transform="rotate(90 5.42847 7.71436)"
    fill="currentColor" />
  <path d="M12.6428 3.78564L15.3571 3.78564" stroke="currentColor" stroke-width="0.571429" stroke-linecap="round" />
</svg>