<svg width="16" height="16" viewBox="0 0 16 16" fill="none" xmlns="http://www.w3.org/2000/svg">
  <path
    d="M6.42222 5.2525C6.36667 5.105 6.21111 5 6.02778 5H2.97222C2.78889 5 2.63611 5.105 2.57778 5.2525L2 6.75V8.75C2 8.8875 2.125 9 2.27778 9H2.55556C2.70833 9 2.83333 8.8875 2.83333 8.75V8.5H6.16667V8.75C6.16667 8.8875 6.29167 9 6.44444 9H6.72222C6.875 9 7 8.8875 7 8.75V6.75L6.42222 5.2525ZM2.97222 7.75C2.74167 7.75 2.55556 7.5825 2.55556 7.375C2.55556 7.1675 2.74167 7 2.97222 7C3.20278 7 3.38889 7.1675 3.38889 7.375C3.38889 7.5825 3.20278 7.75 2.97222 7.75ZM6.02778 7.75C5.79722 7.75 5.61111 7.5825 5.61111 7.375C5.61111 7.1675 5.79722 7 6.02778 7C6.25833 7 6.44444 7.1675 6.44444 7.375C6.44444 7.5825 6.25833 7.75 6.02778 7.75ZM2.55556 6.5L2.97222 5.375H6.02778L6.44444 6.5H2.55556Z"
    fill="#333333" />
  <path
    d="M12.5378 5.66889C12.4933 5.53778 12.3689 5.44444 12.2222 5.44444H11.6667V5.22222C11.6667 5.1 11.5667 5 11.4444 5H10.5556C10.4333 5 10.3333 5.1 10.3333 5.22222V5.44444H9.77778C9.63111 5.44444 9.50889 5.53778 9.46222 5.66889L9.02444 6.92889C9.00889 6.97556 9 7.02444 9 7.07556V8.66667C9 8.85111 9.14889 9 9.33333 9C9.51778 9 9.66667 8.85111 9.66667 8.66667V8.55556H12.3333V8.66667C12.3333 8.84889 12.4822 9 12.6667 9C12.8489 9 13 8.85111 13 8.66667V7.07556C13 7.02667 12.9911 6.97556 12.9756 6.92889L12.5378 5.66889ZM9.77778 7.88889C9.59333 7.88889 9.44444 7.74 9.44444 7.55556C9.44444 7.37111 9.59333 7.22222 9.77778 7.22222C9.96222 7.22222 10.1111 7.37111 10.1111 7.55556C10.1111 7.74 9.96222 7.88889 9.77778 7.88889ZM12.2222 7.88889C12.0378 7.88889 11.8889 7.74 11.8889 7.55556C11.8889 7.37111 12.0378 7.22222 12.2222 7.22222C12.4067 7.22222 12.5556 7.37111 12.5556 7.55556C12.5556 7.74 12.4067 7.88889 12.2222 7.88889ZM9.44444 6.77778L9.77778 5.77778H12.2222L12.5556 6.77778H9.44444Z"
    fill="#333333" />
  <path d="M1 10L1.71429 8H5.28571L6 10H1Z" fill="#F5F5F5" />
  <path d="M9.5 10L10 8H14L14.5 10H9.5Z" fill="#F5F5F5" />
  <path
    d="M6.30667 8.31563C6.24 8.13125 6.05333 8 5.83333 8H2.16667C1.94667 8 1.76333 8.13125 1.69333 8.31563L1 10.1875V12.6875C1 12.8594 1.15 13 1.33333 13H1.66667C1.85 13 2 12.8594 2 12.6875V12.375H6V12.6875C6 12.8594 6.15 13 6.33333 13H6.66667C6.85 13 7 12.8594 7 12.6875V10.1875L6.30667 8.31563ZM2.16667 11.4375C1.89 11.4375 1.66667 11.2281 1.66667 10.9688C1.66667 10.7094 1.89 10.5 2.16667 10.5C2.44333 10.5 2.66667 10.7094 2.66667 10.9688C2.66667 11.2281 2.44333 11.4375 2.16667 11.4375ZM5.83333 11.4375C5.55667 11.4375 5.33333 11.2281 5.33333 10.9688C5.33333 10.7094 5.55667 10.5 5.83333 10.5C6.11 10.5 6.33333 10.7094 6.33333 10.9688C6.33333 11.2281 6.11 11.4375 5.83333 11.4375ZM1.66667 9.875L2.16667 8.46875H5.83333L6.33333 9.875H1.66667Z"
    fill="#333333" />
  <path
    d="M14.3067 8.31563C14.24 8.13125 14.0533 8 13.8333 8H10.1667C9.94667 8 9.76333 8.13125 9.69333 8.31563L9 10.1875V12.6875C9 12.8594 9.15 13 9.33333 13H9.66667C9.85 13 10 12.8594 10 12.6875V12.375H14V12.6875C14 12.8594 14.15 13 14.3333 13H14.6667C14.85 13 15 12.8594 15 12.6875V10.1875L14.3067 8.31563ZM10.1667 11.4375C9.89 11.4375 9.66667 11.2281 9.66667 10.9688C9.66667 10.7094 9.89 10.5 10.1667 10.5C10.4433 10.5 10.6667 10.7094 10.6667 10.9688C10.6667 11.2281 10.4433 11.4375 10.1667 11.4375ZM13.8333 11.4375C13.5567 11.4375 13.3333 11.2281 13.3333 10.9688C13.3333 10.7094 13.5567 10.5 13.8333 10.5C14.11 10.5 14.3333 10.7094 14.3333 10.9688C14.3333 11.2281 14.11 11.4375 13.8333 11.4375ZM9.66667 9.875L10.1667 8.46875H13.8333L14.3333 9.875H9.66667Z"
    fill="#333333" />
</svg>