<svg width="16" height="16" viewBox="0 0 16 16" fill="none" xmlns="http://www.w3.org/2000/svg">
  <path
    d="M4.09385 3.8329L4.26265 4.24282C4.36605 4.49394 4.65546 4.61123 4.90451 4.50295C5.15951 4.39208 5.26929 4.08995 5.14493 3.84125L4.63262 2.81663C4.4967 2.54477 4.21884 2.37305 3.91489 2.37305H2.68557C2.41966 2.37305 2.2041 2.58861 2.2041 2.85452C2.2041 3.12042 2.41966 3.33598 2.68557 3.33598H3.35185C3.67702 3.33598 3.97005 3.53222 4.09385 3.8329Z"
    stroke="#333333" stroke-width="0.401224" />
  <path d="M7.82094 10.3975L6.69751 10.8789L7.25922 12.2431H8.58326L7.82094 10.3975Z" stroke="#333333"
    stroke-width="0.401224" />
  <path
    d="M7.09888 11.9622H12.5555C13.3532 11.9622 13.9999 12.6088 13.9999 13.4066V13.6473H8.14206L7.98157 12.8047L7.09888 12.6041V11.9622Z"
    fill="#333333" />
  <circle cx="7.50029" cy="13.2461" r="0.762325" stroke="#333333" stroke-width="0.401224" />
  <circle cx="12.7962" cy="13.5672" r="0.722203" fill="#333333" />
  <path
    d="M8.05569 11.7073C8.10453 11.17 8.55505 10.7585 9.09458 10.7585H11.4423C11.9818 10.7585 12.4323 11.17 12.4812 11.7073L12.5554 12.5239H7.98145L8.05569 11.7073Z"
    fill="#333333" />
  <path
    d="M3.74976 4.93449C3.65109 4.67644 3.78935 4.38846 4.05242 4.30408L5.32932 3.89451C5.54307 3.82595 5.77583 3.91419 5.8904 4.10723L9.09869 9.51249C9.24955 9.76666 9.1379 10.0955 8.86347 10.2053L6.63 11.0987C6.38043 11.1985 6.09746 11.0746 6.00147 10.8236L3.74976 4.93449Z"
    fill="#333333" />
</svg>